{
 "cells": [
  {
   "cell_type": "markdown",
   "metadata": {},
   "source": [
    "# Define variables"
   ]
  },
  {
   "cell_type": "code",
   "execution_count": 78,
   "metadata": {},
   "outputs": [],
   "source": [
    "# import pathlib\n",
    "\n",
    "# image_path_dir = pathlib.Path(\"/mnt/disk01/prd-eng/consulting/036-FGEngenhariaPostoNO/animacoes/2d/\")\n",
    "# watermark_path = pathlib.Path(\"/mnt/disk01/prd-eng/consulting/036-FGEngenhariaPostoNO/animacoes/Logo final.png\")\n",
    "# output_path_dir = pathlib.Path(\"/mnt/disk01/prd-eng/consulting/036-FGEngenhariaPostoNO/animacoes/2d_watermark/\")\n",
    "\n",
    "# watermark_position = (30,30)\n",
    "# watermark_scale = .25\n",
    "\n",
    "# crop = (0, 150,0 ,37)"
   ]
  },
  {
   "cell_type": "code",
   "execution_count": null,
   "metadata": {},
   "outputs": [],
   "source": [
    "import pathlib\n",
    "import os\n",
    "import subprocess\n",
    "\n",
    "watermark_path = pathlib.Path(\"/mnt/disk01/prd-solver/waineaerosimio/StructureCraft Example/Hypar Case 090 5m 2025-11-07/237_1.6.37/StructureCraft Example_Hypar Case 090 5m 2025-11-07/Logo final.png\")\n",
    "root_path_dir = pathlib.Path(f\"/mnt/disk01/prd-solver/waineaerosimio/StructureCraft Example/Hypar Case 090 5m 2025-11-07/237_1.6.37/StructureCraft Example_Hypar Case 090 5m 2025-11-07/\")\n",
    "images_case = \"animation_velocity_2d\"\n",
    "# images_case = \"animation_vortex\"\n",
    "\n",
    "# watermark_position = (5,5)\n",
    "# watermark_position = (5,690)\n",
    "watermark_position = (1155,690)\n",
    "watermark_scale = .2\n",
    "\n",
    "crop_margins = (0, 0,0,0)\n",
    "\n",
    "gif_size_list = [1200]\n",
    "speed_multiplier_list = [0.5]\n",
    "\n",
    "test_single_image = False\n",
    "add_watermark_to_images = False\n",
    "turn_into_gif = False\n",
    "turn_gif_into_mp4 = True"
   ]
  },
  {
   "cell_type": "markdown",
   "metadata": {},
   "source": [
    "# Adds watermarks"
   ]
  },
  {
   "cell_type": "code",
   "execution_count": 80,
   "metadata": {},
   "outputs": [],
   "source": [
    "from PIL import Image\n",
    "import pathlib\n",
    "\n",
    "def add_watermark_to_image(\n",
    "    image: Image, watermark: Image, watermark_position: tuple, \n",
    ") -> Image:\n",
    "    image.paste(watermark, watermark_position, watermark)\n",
    "    return image\n",
    "\n",
    "def rescale_image(image: Image, image_scale: float) -> Image:\n",
    "    new_width = int(image.width*image_scale)\n",
    "    new_height = int(image.height*image_scale)\n",
    "    image = image.resize((new_width, new_height), Image.Resampling.LANCZOS)\n",
    "    return image\n",
    "\n",
    "def crop_image_margins(\n",
    "    image: pathlib.Path, crop_margins: tuple\n",
    ") -> Image:\n",
    "    w, h =  image.width, image.height\n",
    "    image = image.crop((crop_margins[0], crop_margins[1], w-crop_margins[2], h-crop_margins[3]))\n",
    "    return image"
   ]
  },
  {
   "cell_type": "code",
   "execution_count": 81,
   "metadata": {},
   "outputs": [],
   "source": [
    "def process_image(image: Image, crop_margins: tuple, watermark_position: tuple=None, watermark: Image=None) -> Image:\n",
    "    image = crop_image_margins(image=image, crop_margins=crop_margins)\n",
    "    image = add_watermark_to_image(image=image, watermark=watermark, watermark_position=watermark_position)\n",
    "    return image"
   ]
  },
  {
   "cell_type": "code",
   "execution_count": 83,
   "metadata": {},
   "outputs": [],
   "source": [
    "def generate_gif_from_images(images_dir: pathlib.Path, gif_dir: pathlib.Path, image_size: int, speed_multiplier: float):\n",
    "    gif_file = gif_dir/f\"{images_dir.stem}_size{image_size}_speed{speed_multiplier}.gif\"\n",
    "    gif_file.unlink(missing_ok=True)\n",
    "    command = f'ffmpeg -pattern_type glob -i \"{images_dir}/*.png\" \\\n",
    "        -filter_complex \"setpts={1/speed_multiplier}*PTS,scale={image_size}:-1,split=2[s0][s1];\\\n",
    "            [s0]palettegen[p];\\\n",
    "            [s1][p]paletteuse=dither=bayer:bayer_scale=5\" \\\n",
    "            \"{gif_file}\"'\n",
    "    try:\n",
    "        print(os.getcwd())\n",
    "        subprocess.run(command, shell=True, check=True)\n",
    "    except subprocess.CalledProcessError as e:\n",
    "        print(f\"Error: {e}\")"
   ]
  },
  {
   "cell_type": "code",
   "execution_count": 84,
   "metadata": {},
   "outputs": [],
   "source": [
    "def convert_gif_to_mp4(gif_file_path: pathlib.Path, mp4_file_path:pathlib.Path):\n",
    "    # command = f'ffmpeg -i \"{gif_file_path}\" -movflags faststart \\\n",
    "    #     -pix_fmt yuv420p -vf \"scale=trunc(iw/2)*2:trunc(ih/2)*2\" \\\n",
    "    #     \"{mp4_file_path}\"'\n",
    "    command = f'ffmpeg -i \"{gif_file_path}\" -movflags faststart \\\n",
    "        -pix_fmt yuv420p -vf \"scale=trunc(iw/2)*2:trunc(ih/2)*2\"  -c:v libx264 -preset slow -crf 18\\\n",
    "        \"{mp4_file_path}\"'\n",
    "    try:\n",
    "        print(os.getcwd())\n",
    "        subprocess.run(command, shell=True, check=True)\n",
    "    except subprocess.CalledProcessError as e:\n",
    "        print(f\"Error: {e}\")"
   ]
  },
  {
   "cell_type": "code",
   "execution_count": null,
   "metadata": {},
   "outputs": [],
   "source": []
  },
  {
   "cell_type": "code",
   "execution_count": 85,
   "metadata": {},
   "outputs": [],
   "source": [
    "images_path_dir = root_path_dir/images_case\n",
    "images_with_watermark_path_dir = root_path_dir/f\"{images_case}_watermarked\"\n",
    "images_with_watermark_path_dir.mkdir(parents=True, exist_ok=True)\n",
    "\n",
    "# sorted([im for im in images_path_dir.iterdir()])"
   ]
  },
  {
   "cell_type": "code",
   "execution_count": 86,
   "metadata": {},
   "outputs": [],
   "source": [
    "if test_single_image:\n",
    "    sample_file_path = next(images_path_dir.iterdir())\n",
    "    sample_file = Image.open(sample_file_path)\n",
    "    watermark = Image.open(watermark_path)\n",
    "    watermark = rescale_image(image=watermark, image_scale=watermark_scale)\n",
    "    img = process_image(image=sample_file, crop_margins=crop_margins ,watermark_position=watermark_position, watermark=watermark)\n",
    "    img.save(images_with_watermark_path_dir/sample_file_path.name)"
   ]
  },
  {
   "cell_type": "code",
   "execution_count": 87,
   "metadata": {},
   "outputs": [],
   "source": [
    "if add_watermark_to_images:\n",
    "    watermark = Image.open(watermark_path)\n",
    "    watermark = rescale_image(image=watermark, image_scale=watermark_scale)\n",
    "    for item in sorted([im for im in images_path_dir.iterdir()]):\n",
    "        if item.is_dir():\n",
    "            continue\n",
    "        else:\n",
    "            try:\n",
    "                # print(item.name)\n",
    "                with Image.open(item) as img:\n",
    "                    img = process_image(image=img, crop_margins=crop_margins, watermark_position=watermark_position, watermark=watermark)\n",
    "                    img.save(images_with_watermark_path_dir/item.name)\n",
    "            except IOError:\n",
    "                continue"
   ]
  },
  {
   "cell_type": "code",
   "execution_count": 88,
   "metadata": {},
   "outputs": [],
   "source": [
    "if turn_into_gif:\n",
    "    gif_dir_path = root_path_dir/f\"{images_case}_gifs\"\n",
    "    gif_dir_path.mkdir(parents=True, exist_ok=True)\n",
    "    for image_size in gif_size_list:\n",
    "        for speed_multiplier in speed_multiplier_list:\n",
    "            generate_gif_from_images(images_dir=images_with_watermark_path_dir, \n",
    "                                     gif_dir=gif_dir_path, \n",
    "                                     image_size=image_size, \n",
    "                                     speed_multiplier=speed_multiplier\n",
    "                                    )\n"
   ]
  },
  {
   "cell_type": "code",
   "execution_count": 89,
   "metadata": {},
   "outputs": [
    {
     "name": "stdout",
     "output_type": "stream",
     "text": [
      "/home/ubuntu/users/aron/repos/cfdmod/notebooks\n"
     ]
    },
    {
     "name": "stderr",
     "output_type": "stream",
     "text": [
      "ffmpeg version 4.4.2-0ubuntu0.22.04.1 Copyright (c) 2000-2021 the FFmpeg developers\n",
      "  built with gcc 11 (Ubuntu 11.2.0-19ubuntu1)\n",
      "  configuration: --prefix=/usr --extra-version=0ubuntu0.22.04.1 --toolchain=hardened --libdir=/usr/lib/x86_64-linux-gnu --incdir=/usr/include/x86_64-linux-gnu --arch=amd64 --enable-gpl --disable-stripping --enable-gnutls --enable-ladspa --enable-libaom --enable-libass --enable-libbluray --enable-libbs2b --enable-libcaca --enable-libcdio --enable-libcodec2 --enable-libdav1d --enable-libflite --enable-libfontconfig --enable-libfreetype --enable-libfribidi --enable-libgme --enable-libgsm --enable-libjack --enable-libmp3lame --enable-libmysofa --enable-libopenjpeg --enable-libopenmpt --enable-libopus --enable-libpulse --enable-librabbitmq --enable-librubberband --enable-libshine --enable-libsnappy --enable-libsoxr --enable-libspeex --enable-libsrt --enable-libssh --enable-libtheora --enable-libtwolame --enable-libvidstab --enable-libvorbis --enable-libvpx --enable-libwebp --enable-libx265 --enable-libxml2 --enable-libxvid --enable-libzimg --enable-libzmq --enable-libzvbi --enable-lv2 --enable-omx --enable-openal --enable-opencl --enable-opengl --enable-sdl2 --enable-pocketsphinx --enable-librsvg --enable-libmfx --enable-libdc1394 --enable-libdrm --enable-libiec61883 --enable-chromaprint --enable-frei0r --enable-libx264 --enable-shared\n",
      "  libavutil      56. 70.100 / 56. 70.100\n",
      "  libavcodec     58.134.100 / 58.134.100\n",
      "  libavformat    58. 76.100 / 58. 76.100\n",
      "  libavdevice    58. 13.100 / 58. 13.100\n",
      "  libavfilter     7.110.100 /  7.110.100\n",
      "  libswscale      5.  9.100 /  5.  9.100\n",
      "  libswresample   3.  9.100 /  3.  9.100\n",
      "  libpostproc    55.  9.100 / 55.  9.100\n",
      "Input #0, gif, from '/mnt/disk01/prd-solver/waineaerosimio/StructureCraft Example/Hypar Case 090 5m 2025-11-07/237_1.6.37/StructureCraft Example_Hypar Case 090 5m 2025-11-07/animation_velocity_2d_gifs/animation_velocity_2d_watermarked_size1200_speed0.25.gif':\n",
      "  Duration: 00:00:00.96, start: 0.000000, bitrate: 15771 kb/s\n",
      "  Stream #0:0: Video: gif, bgra, 1200x631, 6.25 fps, 6.25 tbr, 100 tbn, 100 tbc\n",
      "Stream mapping:\n",
      "  Stream #0:0 -> #0:0 (gif (native) -> h264 (libx264))\n",
      "Press [q] to stop, [?] for help\n",
      "[libx264 @ 0x593d36c70740] using cpu capabilities: MMX2 SSE2Fast SSSE3 SSE4.2 AVX FMA3 BMI2 AVX2\n",
      "[libx264 @ 0x593d36c70740] profile High, level 3.1, 4:2:0, 8-bit\n",
      "[libx264 @ 0x593d36c70740] 264 - core 163 r3060 5db6aa6 - H.264/MPEG-4 AVC codec - Copyleft 2003-2021 - http://www.videolan.org/x264.html - options: cabac=1 ref=5 deblock=1:0:0 analyse=0x3:0x113 me=hex subme=8 psy=1 psy_rd=1.00:0.00 mixed_ref=1 me_range=16 chroma_me=1 trellis=2 8x8dct=1 cqm=0 deadzone=21,11 fast_pskip=1 chroma_qp_offset=-2 threads=20 lookahead_threads=3 sliced_threads=0 nr=0 decimate=1 interlaced=0 bluray_compat=0 constrained_intra=0 bframes=3 b_pyramid=2 b_adapt=1 b_bias=0 direct=3 weightb=1 open_gop=0 weightp=2 keyint=250 keyint_min=6 scenecut=40 intra_refresh=0 rc_lookahead=50 rc=crf mbtree=1 crf=18.0 qcomp=0.60 qpmin=0 qpmax=69 qpstep=4 ip_ratio=1.40 aq=1:1.00\n",
      "Output #0, mp4, to '/mnt/disk01/prd-solver/waineaerosimio/StructureCraft Example/Hypar Case 090 5m 2025-11-07/237_1.6.37/StructureCraft Example_Hypar Case 090 5m 2025-11-07/animation_velocity_2d_gifs/animation_velocity_2d_watermarked_size1200_speed0.25.mp4':\n",
      "  Metadata:\n",
      "    encoder         : Lavf58.76.100\n",
      "  Stream #0:0: Video: h264 (avc1 / 0x31637661), yuv420p(tv, progressive), 1200x630, q=2-31, 6.25 fps, 12800 tbn\n",
      "    Metadata:\n",
      "      encoder         : Lavc58.134.100 libx264\n",
      "    Side data:\n",
      "      cpb: bitrate max/min/avg: 0/0/0 buffer size: 0 vbv_delay: N/A\n",
      "[mp4 @ 0x593d36c6ee80] Starting second pass: moving the moov atom to the beginning of the file\n",
      "frame=    6 fps=4.5 q=-1.0 Lsize=    1820kB time=00:00:00.48 bitrate=31056.3kbits/s speed=0.357x    \n",
      "video:1819kB audio:0kB subtitle:0kB other streams:0kB global headers:0kB muxing overhead: 0.050302%\n",
      "[libx264 @ 0x593d36c70740] frame I:1     Avg QP:18.22  size:319843\n",
      "[libx264 @ 0x593d36c70740] frame P:2     Avg QP:18.50  size:310902\n",
      "[libx264 @ 0x593d36c70740] frame B:3     Avg QP:18.49  size:306803\n",
      "[libx264 @ 0x593d36c70740] consecutive B-frames: 33.3%  0.0%  0.0% 66.7%\n",
      "[libx264 @ 0x593d36c70740] mb I  I16..4:  5.8% 80.7% 13.5%\n",
      "[libx264 @ 0x593d36c70740] mb P  I16..4:  0.0% 78.7% 10.3%  P16..4:  1.8%  5.1%  4.1%  0.0%  0.0%    skip: 0.0%\n",
      "[libx264 @ 0x593d36c70740] mb B  I16..4:  0.0% 52.1%  7.8%  B16..8: 11.9% 18.8%  6.8%  direct: 2.6%  skip: 0.0%  L0:16.9% L1:22.3% BI:60.8%\n",
      "[libx264 @ 0x593d36c70740] 8x8 transform intra:86.2% inter:76.7%\n",
      "[libx264 @ 0x593d36c70740] direct mvs  spatial:33.3% temporal:66.7%\n",
      "[libx264 @ 0x593d36c70740] coded y,uvDC,uvAC intra: 99.7% 100.0% 100.0% inter: 98.4% 96.5% 93.2%\n",
      "[libx264 @ 0x593d36c70740] i16 v,h,dc,p:  1%  5% 91%  3%\n",
      "[libx264 @ 0x593d36c70740] i8 v,h,dc,ddl,ddr,vr,hd,vl,hu:  8%  4% 44% 11%  5%  8%  5%  9%  6%\n",
      "[libx264 @ 0x593d36c70740] i4 v,h,dc,ddl,ddr,vr,hd,vl,hu: 13%  3% 30% 11% 10% 11%  6%  8%  6%\n",
      "[libx264 @ 0x593d36c70740] i8c dc,h,v,p: 67%  3%  2% 29%\n",
      "[libx264 @ 0x593d36c70740] Weighted P-Frames: Y:0.0% UV:0.0%\n",
      "[libx264 @ 0x593d36c70740] ref P L0: 60.0%  7.8% 19.2% 13.1%\n",
      "[libx264 @ 0x593d36c70740] ref B L0: 87.8% 12.2%\n",
      "[libx264 @ 0x593d36c70740] ref B L1: 87.7% 12.3%\n",
      "[libx264 @ 0x593d36c70740] kb/s:15517.14\n",
      "ffmpeg version 4.4.2-0ubuntu0.22.04.1 Copyright (c) 2000-2021 the FFmpeg developers\n",
      "  built with gcc 11 (Ubuntu 11.2.0-19ubuntu1)\n",
      "  configuration: --prefix=/usr --extra-version=0ubuntu0.22.04.1 --toolchain=hardened --libdir=/usr/lib/x86_64-linux-gnu --incdir=/usr/include/x86_64-linux-gnu --arch=amd64 --enable-gpl --disable-stripping --enable-gnutls --enable-ladspa --enable-libaom --enable-libass --enable-libbluray --enable-libbs2b --enable-libcaca --enable-libcdio --enable-libcodec2 --enable-libdav1d --enable-libflite --enable-libfontconfig --enable-libfreetype --enable-libfribidi --enable-libgme --enable-libgsm --enable-libjack --enable-libmp3lame --enable-libmysofa --enable-libopenjpeg --enable-libopenmpt --enable-libopus --enable-libpulse --enable-librabbitmq --enable-librubberband --enable-libshine --enable-libsnappy --enable-libsoxr --enable-libspeex --enable-libsrt --enable-libssh --enable-libtheora --enable-libtwolame --enable-libvidstab --enable-libvorbis --enable-libvpx --enable-libwebp --enable-libx265 --enable-libxml2 --enable-libxvid --enable-libzimg --enable-libzmq --enable-libzvbi --enable-lv2 --enable-omx --enable-openal --enable-opencl --enable-opengl --enable-sdl2 --enable-pocketsphinx --enable-librsvg --enable-libmfx --enable-libdc1394 --enable-libdrm --enable-libiec61883 --enable-chromaprint --enable-frei0r --enable-libx264 --enable-shared\n",
      "  libavutil      56. 70.100 / 56. 70.100\n",
      "  libavcodec     58.134.100 / 58.134.100\n",
      "  libavformat    58. 76.100 / 58. 76.100\n",
      "  libavdevice    58. 13.100 / 58. 13.100\n",
      "  libavfilter     7.110.100 /  7.110.100\n",
      "  libswscale      5.  9.100 /  5.  9.100\n",
      "  libswresample   3.  9.100 /  3.  9.100\n",
      "  libpostproc    55.  9.100 / 55.  9.100\n",
      "Input #0, gif, from '/mnt/disk01/prd-solver/waineaerosimio/StructureCraft Example/Hypar Case 090 5m 2025-11-07/237_1.6.37/StructureCraft Example_Hypar Case 090 5m 2025-11-07/animation_velocity_2d_gifs/animation_velocity_2d_watermarked_size1200_speed0.3.gif':\n",
      "  Duration: 00:00:19.84, start: 0.000000, bitrate: 17102 kb/s\n",
      "  Stream #0:0: Video: gif, bgra, 1200x631, 7.50 fps, 25 tbr, 100 tbn, 100 tbc\n",
      "Stream mapping:\n",
      "  Stream #0:0 -> #0:0 (gif (native) -> h264 (libx264))\n",
      "Press [q] to stop, [?] for help\n"
     ]
    },
    {
     "name": "stdout",
     "output_type": "stream",
     "text": [
      "/home/ubuntu/users/aron/repos/cfdmod/notebooks\n"
     ]
    },
    {
     "name": "stderr",
     "output_type": "stream",
     "text": [
      "[libx264 @ 0x582a55bdcf80] using cpu capabilities: MMX2 SSE2Fast SSSE3 SSE4.2 AVX FMA3 BMI2 AVX2\n",
      "[libx264 @ 0x582a55bdcf80] profile High, level 3.1, 4:2:0, 8-bit\n",
      "[libx264 @ 0x582a55bdcf80] 264 - core 163 r3060 5db6aa6 - H.264/MPEG-4 AVC codec - Copyleft 2003-2021 - http://www.videolan.org/x264.html - options: cabac=1 ref=5 deblock=1:0:0 analyse=0x3:0x113 me=hex subme=8 psy=1 psy_rd=1.00:0.00 mixed_ref=1 me_range=16 chroma_me=1 trellis=2 8x8dct=1 cqm=0 deadzone=21,11 fast_pskip=1 chroma_qp_offset=-2 threads=20 lookahead_threads=3 sliced_threads=0 nr=0 decimate=1 interlaced=0 bluray_compat=0 constrained_intra=0 bframes=3 b_pyramid=2 b_adapt=1 b_bias=0 direct=3 weightb=1 open_gop=0 weightp=2 keyint=250 keyint_min=25 scenecut=40 intra_refresh=0 rc_lookahead=50 rc=crf mbtree=1 crf=18.0 qcomp=0.60 qpmin=0 qpmax=69 qpstep=4 ip_ratio=1.40 aq=1:1.00\n",
      "Output #0, mp4, to '/mnt/disk01/prd-solver/waineaerosimio/StructureCraft Example/Hypar Case 090 5m 2025-11-07/237_1.6.37/StructureCraft Example_Hypar Case 090 5m 2025-11-07/animation_velocity_2d_gifs/animation_velocity_2d_watermarked_size1200_speed0.3.mp4':\n",
      "  Metadata:\n",
      "    encoder         : Lavf58.76.100\n",
      "  Stream #0:0: Video: h264 (avc1 / 0x31637661), yuv420p(tv, progressive), 1200x630, q=2-31, 25 fps, 12800 tbn\n",
      "    Metadata:\n",
      "      encoder         : Lavc58.134.100 libx264\n",
      "    Side data:\n",
      "      cpb: bitrate max/min/avg: 0/0/0 buffer size: 0 vbv_delay: N/A\n",
      "[mp4 @ 0x582a55bdb580] Starting second pass: moving the moov atom to the beginning of the file=0 speed= 2.9x    \n",
      "frame=  495 fps= 75 q=-1.0 Lsize=    3659kB time=00:00:19.68 bitrate=1522.9kbits/s dup=346 drop=0 speed=2.98x    \n",
      "video:3652kB audio:0kB subtitle:0kB other streams:0kB global headers:0kB muxing overhead: 0.179614%\n",
      "[libx264 @ 0x582a55bdcf80] frame I:2     Avg QP:14.64  size: 41268\n",
      "[libx264 @ 0x582a55bdcf80] frame P:128   Avg QP:18.94  size: 23698\n",
      "[libx264 @ 0x582a55bdcf80] frame B:365   Avg QP:17.31  size:  1707\n",
      "[libx264 @ 0x582a55bdcf80] consecutive B-frames:  0.6%  0.0%  9.7% 89.7%\n",
      "[libx264 @ 0x582a55bdcf80] mb I  I16..4: 22.5% 65.0% 12.5%\n",
      "[libx264 @ 0x582a55bdcf80] mb P  I16..4:  6.9% 28.8%  1.3%  P16..4: 23.8% 16.6%  5.6%  0.0%  0.0%    skip:17.0%\n",
      "[libx264 @ 0x582a55bdcf80] mb B  I16..4:  0.2%  1.2%  0.1%  B16..8:  8.2%  1.4%  0.3%  direct: 0.2%  skip:88.4%  L0:40.7% L1:57.8% BI: 1.6%\n",
      "[libx264 @ 0x582a55bdcf80] 8x8 transform intra:78.1% inter:89.5%\n",
      "[libx264 @ 0x582a55bdcf80] direct mvs  spatial:97.5% temporal:2.5%\n",
      "[libx264 @ 0x582a55bdcf80] coded y,uvDC,uvAC intra: 61.7% 89.4% 62.1% inter: 8.5% 9.4% 3.8%\n",
      "[libx264 @ 0x582a55bdcf80] i16 v,h,dc,p:  7% 22%  4% 67%\n",
      "[libx264 @ 0x582a55bdcf80] i8 v,h,dc,ddl,ddr,vr,hd,vl,hu:  8% 15%  9%  9% 11%  9% 13% 10% 15%\n",
      "[libx264 @ 0x582a55bdcf80] i4 v,h,dc,ddl,ddr,vr,hd,vl,hu:  9% 12% 11%  8% 15% 11% 14%  8% 12%\n",
      "[libx264 @ 0x582a55bdcf80] i8c dc,h,v,p: 31% 27% 12% 29%\n",
      "[libx264 @ 0x582a55bdcf80] Weighted P-Frames: Y:0.0% UV:0.0%\n",
      "[libx264 @ 0x582a55bdcf80] ref P L0: 45.2%  3.6% 20.7% 16.0% 14.5%\n",
      "[libx264 @ 0x582a55bdcf80] ref B L0: 75.9% 10.5% 10.1%  3.6%\n",
      "[libx264 @ 0x582a55bdcf80] ref B L1: 97.4%  2.6%\n",
      "[libx264 @ 0x582a55bdcf80] kb/s:1510.71\n",
      "ffmpeg version 4.4.2-0ubuntu0.22.04.1 Copyright (c) 2000-2021 the FFmpeg developers\n",
      "  built with gcc 11 (Ubuntu 11.2.0-19ubuntu1)\n",
      "  configuration: --prefix=/usr --extra-version=0ubuntu0.22.04.1 --toolchain=hardened --libdir=/usr/lib/x86_64-linux-gnu --incdir=/usr/include/x86_64-linux-gnu --arch=amd64 --enable-gpl --disable-stripping --enable-gnutls --enable-ladspa --enable-libaom --enable-libass --enable-libbluray --enable-libbs2b --enable-libcaca --enable-libcdio --enable-libcodec2 --enable-libdav1d --enable-libflite --enable-libfontconfig --enable-libfreetype --enable-libfribidi --enable-libgme --enable-libgsm --enable-libjack --enable-libmp3lame --enable-libmysofa --enable-libopenjpeg --enable-libopenmpt --enable-libopus --enable-libpulse --enable-librabbitmq --enable-librubberband --enable-libshine --enable-libsnappy --enable-libsoxr --enable-libspeex --enable-libsrt --enable-libssh --enable-libtheora --enable-libtwolame --enable-libvidstab --enable-libvorbis --enable-libvpx --enable-libwebp --enable-libx265 --enable-libxml2 --enable-libxvid --enable-libzimg --enable-libzmq --enable-libzvbi --enable-lv2 --enable-omx --enable-openal --enable-opencl --enable-opengl --enable-sdl2 --enable-pocketsphinx --enable-librsvg --enable-libmfx --enable-libdc1394 --enable-libdrm --enable-libiec61883 --enable-chromaprint --enable-frei0r --enable-libx264 --enable-shared\n",
      "  libavutil      56. 70.100 / 56. 70.100\n",
      "  libavcodec     58.134.100 / 58.134.100\n",
      "  libavformat    58. 76.100 / 58. 76.100\n",
      "  libavdevice    58. 13.100 / 58. 13.100\n",
      "  libavfilter     7.110.100 /  7.110.100\n",
      "  libswscale      5.  9.100 /  5.  9.100\n",
      "  libswresample   3.  9.100 /  3.  9.100\n",
      "  libpostproc    55.  9.100 / 55.  9.100\n",
      "Input #0, gif, from '/mnt/disk01/prd-solver/waineaerosimio/StructureCraft Example/Hypar Case 090 5m 2025-11-07/237_1.6.37/StructureCraft Example_Hypar Case 090 5m 2025-11-07/animation_velocity_2d_gifs/animation_velocity_2d_watermarked_size1200_speed0.5.gif':\n"
     ]
    },
    {
     "name": "stdout",
     "output_type": "stream",
     "text": [
      "/home/ubuntu/users/aron/repos/cfdmod/notebooks\n"
     ]
    },
    {
     "name": "stderr",
     "output_type": "stream",
     "text": [
      "  Duration: 00:00:11.92, start: 0.000000, bitrate: 28465 kb/s\n",
      "  Stream #0:0: Video: gif, bgra, 1200x631, 12.50 fps, 12.50 tbr, 100 tbn, 100 tbc\n",
      "Stream mapping:\n",
      "  Stream #0:0 -> #0:0 (gif (native) -> h264 (libx264))\n",
      "Press [q] to stop, [?] for help\n",
      "[libx264 @ 0x64e95ed4bf80] using cpu capabilities: MMX2 SSE2Fast SSSE3 SSE4.2 AVX FMA3 BMI2 AVX2\n",
      "[libx264 @ 0x64e95ed4bf80] profile High, level 3.1, 4:2:0, 8-bit\n",
      "[libx264 @ 0x64e95ed4bf80] 264 - core 163 r3060 5db6aa6 - H.264/MPEG-4 AVC codec - Copyleft 2003-2021 - http://www.videolan.org/x264.html - options: cabac=1 ref=5 deblock=1:0:0 analyse=0x3:0x113 me=hex subme=8 psy=1 psy_rd=1.00:0.00 mixed_ref=1 me_range=16 chroma_me=1 trellis=2 8x8dct=1 cqm=0 deadzone=21,11 fast_pskip=1 chroma_qp_offset=-2 threads=20 lookahead_threads=3 sliced_threads=0 nr=0 decimate=1 interlaced=0 bluray_compat=0 constrained_intra=0 bframes=3 b_pyramid=2 b_adapt=1 b_bias=0 direct=3 weightb=1 open_gop=0 weightp=2 keyint=250 keyint_min=12 scenecut=40 intra_refresh=0 rc_lookahead=50 rc=crf mbtree=1 crf=18.0 qcomp=0.60 qpmin=0 qpmax=69 qpstep=4 ip_ratio=1.40 aq=1:1.00\n",
      "Output #0, mp4, to '/mnt/disk01/prd-solver/waineaerosimio/StructureCraft Example/Hypar Case 090 5m 2025-11-07/237_1.6.37/StructureCraft Example_Hypar Case 090 5m 2025-11-07/animation_velocity_2d_gifs/animation_velocity_2d_watermarked_size1200_speed0.5.mp4':\n",
      "  Metadata:\n",
      "    encoder         : Lavf58.76.100\n",
      "  Stream #0:0: Video: h264 (avc1 / 0x31637661), yuv420p(tv, progressive), 1200x630, q=2-31, 12.50 fps, 12800 tbn\n",
      "    Metadata:\n",
      "      encoder         : Lavc58.134.100 libx264\n",
      "    Side data:\n",
      "      cpb: bitrate max/min/avg: 0/0/0 buffer size: 0 vbv_delay: N/A\n",
      "[mp4 @ 0x64e95ed4a580] Starting second pass: moving the moov atom to the beginning of the file    \n",
      "frame=  149 fps= 39 q=-1.0 Lsize=    3668kB time=00:00:11.68 bitrate=2572.8kbits/s speed=3.09x    \n",
      "video:3666kB audio:0kB subtitle:0kB other streams:0kB global headers:0kB muxing overhead: 0.068864%\n",
      "[libx264 @ 0x64e95ed4bf80] frame I:1     Avg QP:15.61  size: 36979\n",
      "[libx264 @ 0x64e95ed4bf80] frame P:84    Avg QP:17.66  size: 26161\n",
      "[libx264 @ 0x64e95ed4bf80] frame B:64    Avg QP:17.14  size: 23728\n",
      "[libx264 @ 0x64e95ed4bf80] consecutive B-frames: 18.1% 72.5%  4.0%  5.4%\n",
      "[libx264 @ 0x64e95ed4bf80] mb I  I16..4: 23.3% 65.8% 10.9%\n",
      "[libx264 @ 0x64e95ed4bf80] mb P  I16..4:  6.1% 31.6%  1.7%  P16..4: 20.2% 17.7%  6.3%  0.0%  0.0%    skip:16.3%\n",
      "[libx264 @ 0x64e95ed4bf80] mb B  I16..4:  2.9% 18.8%  1.0%  B16..8: 23.0% 25.9%  5.1%  direct: 3.6%  skip:19.8%  L0:57.4% L1:38.1% BI: 4.5%\n",
      "[libx264 @ 0x64e95ed4bf80] 8x8 transform intra:80.7% inter:87.8%\n",
      "[libx264 @ 0x64e95ed4bf80] direct mvs  spatial:90.6% temporal:9.4%\n",
      "[libx264 @ 0x64e95ed4bf80] coded y,uvDC,uvAC intra: 65.4% 90.9% 67.1% inter: 40.9% 42.2% 18.5%\n",
      "[libx264 @ 0x64e95ed4bf80] i16 v,h,dc,p:  5% 21%  3% 71%\n",
      "[libx264 @ 0x64e95ed4bf80] i8 v,h,dc,ddl,ddr,vr,hd,vl,hu:  9% 17% 11%  9% 11%  9% 12% 10% 13%\n",
      "[libx264 @ 0x64e95ed4bf80] i4 v,h,dc,ddl,ddr,vr,hd,vl,hu: 11% 14% 14%  7% 14% 10% 12%  7% 10%\n",
      "[libx264 @ 0x64e95ed4bf80] i8c dc,h,v,p: 32% 27% 12% 28%\n",
      "[libx264 @ 0x64e95ed4bf80] Weighted P-Frames: Y:0.0% UV:0.0%\n",
      "[libx264 @ 0x64e95ed4bf80] ref P L0: 38.0%  2.8% 23.3% 17.0% 15.1%  3.7%\n",
      "[libx264 @ 0x64e95ed4bf80] ref B L0: 55.6% 24.3% 19.1%  1.0%\n",
      "[libx264 @ 0x64e95ed4bf80] ref B L1: 98.9%  1.1%\n",
      "[libx264 @ 0x64e95ed4bf80] kb/s:2518.84\n",
      "ffmpeg version 4.4.2-0ubuntu0.22.04.1 Copyright (c) 2000-2021 the FFmpeg developers\n",
      "  built with gcc 11 (Ubuntu 11.2.0-19ubuntu1)\n",
      "  configuration: --prefix=/usr --extra-version=0ubuntu0.22.04.1 --toolchain=hardened --libdir=/usr/lib/x86_64-linux-gnu --incdir=/usr/include/x86_64-linux-gnu --arch=amd64 --enable-gpl --disable-stripping --enable-gnutls --enable-ladspa --enable-libaom --enable-libass --enable-libbluray --enable-libbs2b --enable-libcaca --enable-libcdio --enable-libcodec2 --enable-libdav1d --enable-libflite --enable-libfontconfig --enable-libfreetype --enable-libfribidi --enable-libgme --enable-libgsm --enable-libjack --enable-libmp3lame --enable-libmysofa --enable-libopenjpeg --enable-libopenmpt --enable-libopus --enable-libpulse --enable-librabbitmq --enable-librubberband --enable-libshine --enable-libsnappy --enable-libsoxr --enable-libspeex --enable-libsrt --enable-libssh --enable-libtheora --enable-libtwolame --enable-libvidstab --enable-libvorbis --enable-libvpx --enable-libwebp --enable-libx265 --enable-libxml2 --enable-libxvid --enable-libzimg --enable-libzmq --enable-libzvbi --enable-lv2 --enable-omx --enable-openal --enable-opencl --enable-opengl --enable-sdl2 --enable-pocketsphinx --enable-librsvg --enable-libmfx --enable-libdc1394 --enable-libdrm --enable-libiec61883 --enable-chromaprint --enable-frei0r --enable-libx264 --enable-shared\n",
      "  libavutil      56. 70.100 / 56. 70.100\n",
      "  libavcodec     58.134.100 / 58.134.100\n",
      "  libavformat    58. 76.100 / 58. 76.100\n",
      "  libavdevice    58. 13.100 / 58. 13.100\n",
      "  libavfilter     7.110.100 /  7.110.100\n",
      "  libswscale      5.  9.100 /  5.  9.100\n",
      "  libswresample   3.  9.100 /  3.  9.100\n",
      "  libpostproc    55.  9.100 / 55.  9.100\n",
      "Input #0, gif, from '/mnt/disk01/prd-solver/waineaerosimio/StructureCraft Example/Hypar Case 090 5m 2025-11-07/237_1.6.37/StructureCraft Example_Hypar Case 090 5m 2025-11-07/animation_velocity_2d_gifs/animation_velocity_2d_watermarked_size1200_speed0.4.gif':\n",
      "  Duration: 00:00:14.92, start: 0.000000, bitrate: 22741 kb/s\n",
      "  Stream #0:0: Video: gif, bgra, 1200x631, 10.17 fps, 25 tbr, 100 tbn, 100 tbc\n",
      "Stream mapping:\n",
      "  Stream #0:0 -> #0:0 (gif (native) -> h264 (libx264))\n",
      "Press [q] to stop, [?] for help\n"
     ]
    },
    {
     "name": "stdout",
     "output_type": "stream",
     "text": [
      "/home/ubuntu/users/aron/repos/cfdmod/notebooks\n"
     ]
    },
    {
     "name": "stderr",
     "output_type": "stream",
     "text": [
      "[libx264 @ 0x626e042aff80] using cpu capabilities: MMX2 SSE2Fast SSSE3 SSE4.2 AVX FMA3 BMI2 AVX2\n",
      "[libx264 @ 0x626e042aff80] profile High, level 3.1, 4:2:0, 8-bit\n",
      "[libx264 @ 0x626e042aff80] 264 - core 163 r3060 5db6aa6 - H.264/MPEG-4 AVC codec - Copyleft 2003-2021 - http://www.videolan.org/x264.html - options: cabac=1 ref=5 deblock=1:0:0 analyse=0x3:0x113 me=hex subme=8 psy=1 psy_rd=1.00:0.00 mixed_ref=1 me_range=16 chroma_me=1 trellis=2 8x8dct=1 cqm=0 deadzone=21,11 fast_pskip=1 chroma_qp_offset=-2 threads=20 lookahead_threads=3 sliced_threads=0 nr=0 decimate=1 interlaced=0 bluray_compat=0 constrained_intra=0 bframes=3 b_pyramid=2 b_adapt=1 b_bias=0 direct=3 weightb=1 open_gop=0 weightp=2 keyint=250 keyint_min=25 scenecut=40 intra_refresh=0 rc_lookahead=50 rc=crf mbtree=1 crf=18.0 qcomp=0.60 qpmin=0 qpmax=69 qpstep=4 ip_ratio=1.40 aq=1:1.00\n",
      "Output #0, mp4, to '/mnt/disk01/prd-solver/waineaerosimio/StructureCraft Example/Hypar Case 090 5m 2025-11-07/237_1.6.37/StructureCraft Example_Hypar Case 090 5m 2025-11-07/animation_velocity_2d_gifs/animation_velocity_2d_watermarked_size1200_speed0.4.mp4':\n",
      "  Metadata:\n",
      "    encoder         : Lavf58.76.100\n",
      "  Stream #0:0: Video: h264 (avc1 / 0x31637661), yuv420p(tv, progressive), 1200x630, q=2-31, 25 fps, 12800 tbn\n",
      "    Metadata:\n",
      "      encoder         : Lavc58.134.100 libx264\n",
      "    Side data:\n",
      "      cpb: bitrate max/min/avg: 0/0/0 buffer size: 0 vbv_delay: N/A\n",
      "[mp4 @ 0x626e042ae580] Starting second pass: moving the moov atom to the beginning of the file=0 speed=2.81x    \n",
      "frame=  372 fps= 73 q=-1.0 Lsize=    3466kB time=00:00:14.76 bitrate=1923.8kbits/s dup=223 drop=0 speed=2.92x    \n",
      "video:3461kB audio:0kB subtitle:0kB other streams:0kB global headers:0kB muxing overhead: 0.147194%\n",
      "[libx264 @ 0x626e042aff80] frame I:2     Avg QP:16.68  size: 35960\n",
      "[libx264 @ 0x626e042aff80] frame P:106   Avg QP:19.41  size: 22683\n",
      "[libx264 @ 0x626e042aff80] frame B:264   Avg QP:17.84  size:  4043\n",
      "[libx264 @ 0x626e042aff80] consecutive B-frames:  0.5%  9.1% 16.1% 74.2%\n",
      "[libx264 @ 0x626e042aff80] mb I  I16..4: 23.3% 66.8%  9.9%\n",
      "[libx264 @ 0x626e042aff80] mb P  I16..4:  7.5% 28.8%  1.1%  P16..4: 24.0% 16.2%  5.5%  0.0%  0.0%    skip:17.0%\n",
      "[libx264 @ 0x626e042aff80] mb B  I16..4:  0.5%  3.0%  0.2%  B16..8: 10.7%  4.0%  0.8%  direct: 0.6%  skip:80.2%  L0:45.6% L1:51.9% BI: 2.5%\n",
      "[libx264 @ 0x626e042aff80] 8x8 transform intra:77.7% inter:90.3%\n",
      "[libx264 @ 0x626e042aff80] direct mvs  spatial:96.2% temporal:3.8%\n",
      "[libx264 @ 0x626e042aff80] coded y,uvDC,uvAC intra: 59.6% 88.9% 59.6% inter: 12.0% 12.9% 5.0%\n",
      "[libx264 @ 0x626e042aff80] i16 v,h,dc,p:  6% 22%  5% 67%\n",
      "[libx264 @ 0x626e042aff80] i8 v,h,dc,ddl,ddr,vr,hd,vl,hu:  8% 15%  9%  9% 11%  9% 13% 10% 14%\n",
      "[libx264 @ 0x626e042aff80] i4 v,h,dc,ddl,ddr,vr,hd,vl,hu: 11% 14% 13%  7% 14% 10% 13%  8% 11%\n",
      "[libx264 @ 0x626e042aff80] i8c dc,h,v,p: 31% 27% 12% 30%\n",
      "[libx264 @ 0x626e042aff80] Weighted P-Frames: Y:0.0% UV:0.0%\n",
      "[libx264 @ 0x626e042aff80] ref P L0: 42.1%  3.3% 21.5% 16.6% 16.5%\n",
      "[libx264 @ 0x626e042aff80] ref B L0: 62.3% 15.7% 12.1%  9.8%\n",
      "[libx264 @ 0x626e042aff80] ref B L1: 99.7%  0.3%\n",
      "[libx264 @ 0x626e042aff80] kb/s:1905.17\n"
     ]
    }
   ],
   "source": [
    "if turn_gif_into_mp4:\n",
    "    for item in gif_dir_path.iterdir():\n",
    "        if item.is_dir():\n",
    "            continue\n",
    "        elif item.suffix == \".gif\":\n",
    "            mp4_file=item.parent/(item.stem+\".mp4\")\n",
    "            mp4_file.unlink(missing_ok=True)\n",
    "            convert_gif_to_mp4(gif_file_path=item, mp4_file_path=mp4_file)"
   ]
  }
 ],
 "metadata": {
  "kernelspec": {
   "display_name": "eng",
   "language": "python",
   "name": "python3"
  },
  "language_info": {
   "codemirror_mode": {
    "name": "ipython",
    "version": 3
   },
   "file_extension": ".py",
   "mimetype": "text/x-python",
   "name": "python",
   "nbconvert_exporter": "python",
   "pygments_lexer": "ipython3",
   "version": "3.11.9"
  }
 },
 "nbformat": 4,
 "nbformat_minor": 2
}
